#Comment line ignore any data following # character 
#Hierarchical Translation and Rotation (.htr) file 
[Header]	
#Header keywords are followed by a single value 
FileType HTR		#Single word string
DataType HTRS		#Translation followed by rotation and scale data
FileVersion 1		#integer
NumSegments 84		#integer
NumFrames 2		#integer
DataFrameRate 30		#integer, data frame rate in this file
EulerRotationOrder ZYX
CalibrationUnits mm
RotationUnits Degrees
GlobalAxisofGravity Y
BoneLengthAxis Y
ScaleFactor 1.00
[SegmentNames&Hierarchy]
#CHILD	PARENT
MASTER GLOBAL
root MASTER
chest root
L_mid_tent01 root
R_mid_tent01 root
spine01 root
Bip01_Neck chest
L_humerus chest
R_humerus chest
weapon_bone chest
Bip01_Head Bip01_Neck
eye_left_bone Bip01_Head
eye_right_bone Bip01_Head
L_forearm L_humerus
L_front_hand L_forearm
L_weapon_bone L_forearm
L_front_hand01_01 L_front_hand
L_front_hand02_01 L_front_hand
L_front_hand03_01 L_front_hand
L_front_hand01_02 L_front_hand01_01
L_front_hand02_02 L_front_hand02_01
L_front_hand03_02 L_front_hand03_01
R_forearm R_humerus
R_front_hand R_forearm
R_weapon_bone R_forearm
R_front_hand01_01 R_front_hand
R_front_hand02_01 R_front_hand
R_front_hand03_01 R_front_hand
R_front_hand01_02 R_front_hand01_01
R_front_hand02_02 R_front_hand02_01
R_front_hand03_02 R_front_hand03_01
null_rope01_connect L_mid_tent01
Rope1_Seg01 null_rope01_connect
Rope1_Seg02 Rope1_Seg01
Rope1_Seg03 Rope1_Seg02
Rope1_Seg04 Rope1_Seg03
Rope1_Seg05 Rope1_Seg04
Rope1_Seg06 Rope1_Seg05
Rope1_Seg07 Rope1_Seg06
Rope1_Seg09 Rope1_Seg07
L_mid_hand01 Rope1_Seg09
L_mid_hand02 Rope1_Seg09
L_mid_hand03 Rope1_Seg09
null_rope02_connect R_mid_tent01
Rope2_Seg01 null_rope02_connect
Rope2_Seg02 Rope2_Seg01
Rope2_Seg03 Rope2_Seg02
Rope2_Seg04 Rope2_Seg03
Rope2_Seg05 Rope2_Seg04
Rope2_Seg06 Rope2_Seg05
Rope2_Seg07 Rope2_Seg06
Rope2_Seg09 Rope2_Seg07
R_mid_hand01 Rope2_Seg09
R_mid_hand02 Rope2_Seg09
R_mid_hand03 Rope2_Seg09
spine02 spine01
spine03 spine02
pelvis spine03
null_rope03_connect pelvis
null_rope04_connect pelvis
Rope3_Seg01 null_rope03_connect
Rope3_Seg02 Rope3_Seg01
Rope3_Seg03 Rope3_Seg02
Rope3_Seg04 Rope3_Seg03
Rope3_Seg05 Rope3_Seg04
Rope3_Seg06 Rope3_Seg05
Rope3_Seg07 Rope3_Seg06
Rope3_Seg08 Rope3_Seg07
Rope3_Seg09 Rope3_Seg08
R_rear_hand01 Rope3_Seg09
R_rear_hand02 Rope3_Seg09
R_rear_hand03 Rope3_Seg09
Rope4_Seg01 null_rope04_connect
Rope4_Seg02 Rope4_Seg01
Rope4_Seg03 Rope4_Seg02
Rope4_Seg04 Rope4_Seg03
Rope4_Seg05 Rope4_Seg04
Rope4_Seg06 Rope4_Seg05
Rope4_Seg07 Rope4_Seg06
Rope4_Seg08 Rope4_Seg07
Rope4_Seg09 Rope4_Seg08
L_rear_hand01 Rope4_Seg09
L_rear_hand02 Rope4_Seg09
L_rear_hand03 Rope4_Seg09
[BasePosition]
#SegmentName Tx, Ty, Tz, Rx, Ry, Rz, BoneLength
MASTER 0.000000 0.000000 0.000000 -90.000000 0.000000 0.000000 10.000000 
root 0.000000 0.000000 0.000000 0.000000 0.000000 0.000000 10.000000 
chest 0.000000 0.000000 0.000000 0.000000 0.000000 0.000000 10.000000 
L_mid_tent01 0.000000 0.000000 0.000000 0.000000 0.000000 0.000000 10.000000 
R_mid_tent01 0.000000 0.000000 0.000000 0.000000 0.000000 0.000000 10.000000 
spine01 0.000000 0.000000 0.000000 0.000000 0.000000 0.000000 10.000000 
Bip01_Neck 0.000000 0.000000 0.000000 0.000000 0.000000 0.000000 10.000000 
L_humerus 0.000000 0.000000 0.000000 0.000000 0.000000 0.000000 10.000000 
R_humerus 0.000000 0.000000 0.000000 0.000000 0.000000 0.000000 10.000000 
weapon_bone 0.000000 0.000000 0.000000 0.000000 0.000000 0.000000 10.000000 
Bip01_Head 0.000000 0.000000 0.000000 0.000000 0.000000 0.000000 10.000000 
eye_left_bone 0.000000 0.000000 0.000000 0.000000 0.000000 0.000000 10.000000 
eye_right_bone 0.000000 0.000000 0.000000 0.000000 0.000000 0.000000 10.000000 
L_forearm 0.000000 0.000000 0.000000 0.000000 0.000000 0.000000 10.000000 
L_front_hand 0.000000 0.000000 0.000000 0.000000 0.000000 0.000000 10.000000 
L_weapon_bone 0.000000 0.000000 0.000000 0.000000 0.000000 0.000000 10.000000 
L_front_hand01_01 0.000000 0.000000 0.000000 0.000000 0.000000 0.000000 10.000000 
L_front_hand02_01 0.000000 0.000000 0.000000 0.000000 0.000000 0.000000 10.000000 
L_front_hand03_01 0.000000 0.000000 0.000000 0.000000 0.000000 0.000000 10.000000 
L_front_hand01_02 0.000000 0.000000 0.000000 0.000000 0.000000 0.000000 10.000000 
L_front_hand02_02 0.000000 0.000000 0.000000 0.000000 0.000000 0.000000 10.000000 
L_front_hand03_02 0.000000 0.000000 0.000000 0.000000 0.000000 0.000000 10.000000 
R_forearm 0.000000 0.000000 0.000000 0.000000 0.000000 0.000000 10.000000 
R_front_hand 0.000000 0.000000 0.000000 0.000000 0.000000 0.000000 10.000000 
R_weapon_bone 0.000000 0.000000 0.000000 0.000000 0.000000 0.000000 10.000000 
R_front_hand01_01 0.000000 0.000000 0.000000 0.000000 0.000000 0.000000 10.000000 
R_front_hand02_01 0.000000 0.000000 0.000000 0.000000 0.000000 0.000000 10.000000 
R_front_hand03_01 0.000000 0.000000 0.000000 0.000000 0.000000 0.000000 10.000000 
R_front_hand01_02 0.000000 0.000000 0.000000 0.000000 0.000000 0.000000 10.000000 
R_front_hand02_02 0.000000 0.000000 0.000000 0.000000 0.000000 0.000000 10.000000 
R_front_hand03_02 0.000000 0.000000 0.000000 0.000000 0.000000 0.000000 10.000000 
null_rope01_connect 0.000000 0.000000 0.000000 0.000000 0.000000 0.000000 10.000000 
Rope1_Seg01 0.000000 0.000000 0.000000 0.000000 0.000000 0.000000 10.000000 
Rope1_Seg02 0.000000 0.000000 0.000000 0.000000 0.000000 0.000000 10.000000 
Rope1_Seg03 0.000000 0.000000 0.000000 0.000000 0.000000 0.000000 10.000000 
Rope1_Seg04 0.000000 0.000000 0.000000 0.000000 0.000000 0.000000 10.000000 
Rope1_Seg05 0.000000 0.000000 0.000000 0.000000 0.000000 0.000000 10.000000 
Rope1_Seg06 0.000000 0.000000 0.000000 0.000000 0.000000 0.000000 10.000000 
Rope1_Seg07 0.000000 0.000000 0.000000 0.000000 0.000000 0.000000 10.000000 
Rope1_Seg09 0.000000 0.000000 0.000000 0.000000 0.000000 0.000000 10.000000 
L_mid_hand01 0.000000 0.000000 0.000000 0.000000 0.000000 0.000000 10.000000 
L_mid_hand02 0.000000 0.000000 0.000000 0.000000 0.000000 0.000000 10.000000 
L_mid_hand03 0.000000 0.000000 0.000000 0.000000 0.000000 0.000000 10.000000 
null_rope02_connect 0.000000 0.000000 0.000000 0.000000 0.000000 0.000000 10.000000 
Rope2_Seg01 0.000000 0.000000 0.000000 0.000000 0.000000 0.000000 10.000000 
Rope2_Seg02 0.000000 0.000000 0.000000 0.000000 0.000000 0.000000 10.000000 
Rope2_Seg03 0.000000 0.000000 0.000000 0.000000 0.000000 0.000000 10.000000 
Rope2_Seg04 0.000000 0.000000 0.000000 0.000000 0.000000 0.000000 10.000000 
Rope2_Seg05 0.000000 0.000000 0.000000 0.000000 0.000000 0.000000 10.000000 
Rope2_Seg06 0.000000 0.000000 0.000000 0.000000 0.000000 0.000000 10.000000 
Rope2_Seg07 0.000000 0.000000 0.000000 0.000000 0.000000 0.000000 10.000000 
Rope2_Seg09 0.000000 0.000000 0.000000 0.000000 0.000000 0.000000 10.000000 
R_mid_hand01 0.000000 0.000000 0.000000 0.000000 0.000000 0.000000 10.000000 
R_mid_hand02 0.000000 0.000000 0.000000 0.000000 0.000000 0.000000 10.000000 
R_mid_hand03 0.000000 0.000000 0.000000 0.000000 0.000000 0.000000 10.000000 
spine02 0.000000 0.000000 0.000000 0.000000 0.000000 0.000000 10.000000 
spine03 0.000000 0.000000 0.000000 0.000000 0.000000 0.000000 10.000000 
pelvis 0.000000 0.000000 0.000000 0.000000 0.000000 0.000000 10.000000 
null_rope03_connect 0.000000 0.000000 0.000000 0.000000 0.000000 0.000000 10.000000 
null_rope04_connect 0.000000 0.000000 0.000000 0.000000 0.000000 0.000000 10.000000 
Rope3_Seg01 0.000000 0.000000 0.000000 0.000000 0.000000 0.000000 10.000000 
Rope3_Seg02 0.000000 0.000000 0.000000 0.000000 0.000000 0.000000 10.000000 
Rope3_Seg03 0.000000 0.000000 0.000000 0.000000 0.000000 0.000000 10.000000 
Rope3_Seg04 0.000000 0.000000 0.000000 0.000000 0.000000 0.000000 10.000000 
Rope3_Seg05 0.000000 0.000000 0.000000 0.000000 0.000000 0.000000 10.000000 
Rope3_Seg06 0.000000 0.000000 0.000000 0.000000 0.000000 0.000000 10.000000 
Rope3_Seg07 0.000000 0.000000 0.000000 0.000000 0.000000 0.000000 10.000000 
Rope3_Seg08 0.000000 0.000000 0.000000 0.000000 0.000000 0.000000 10.000000 
Rope3_Seg09 0.000000 0.000000 0.000000 0.000000 0.000000 0.000000 10.000000 
R_rear_hand01 0.000000 0.000000 0.000000 0.000000 0.000000 0.000000 10.000000 
R_rear_hand02 0.000000 0.000000 0.000000 0.000000 0.000000 0.000000 10.000000 
R_rear_hand03 0.000000 0.000000 0.000000 0.000000 0.000000 0.000000 10.000000 
Rope4_Seg01 0.000000 0.000000 0.000000 0.000000 0.000000 0.000000 10.000000 
Rope4_Seg02 0.000000 0.000000 0.000000 0.000000 0.000000 0.000000 10.000000 
Rope4_Seg03 0.000000 0.000000 0.000000 0.000000 0.000000 0.000000 10.000000 
Rope4_Seg04 0.000000 0.000000 0.000000 0.000000 0.000000 0.000000 10.000000 
Rope4_Seg05 0.000000 0.000000 0.000000 0.000000 0.000000 0.000000 10.000000 
Rope4_Seg06 0.000000 0.000000 0.000000 0.000000 0.000000 0.000000 10.000000 
Rope4_Seg07 0.000000 0.000000 0.000000 0.000000 0.000000 0.000000 10.000000 
Rope4_Seg08 0.000000 0.000000 0.000000 0.000000 0.000000 0.000000 10.000000 
Rope4_Seg09 0.000000 0.000000 0.000000 0.000000 0.000000 0.000000 10.000000 
L_rear_hand01 0.000000 0.000000 0.000000 0.000000 0.000000 0.000000 10.000000 
L_rear_hand02 0.000000 0.000000 0.000000 0.000000 0.000000 0.000000 10.000000 
L_rear_hand03 0.000000 0.000000 0.000000 0.000000 0.000000 0.000000 10.000000 
#Beginning of Data. Separated by tabs
#Fr	Tx	Ty	Tz	Rx	Ry	Rz	SF
[MASTER]
3 0.000003 -0.000096 -67.735901 0.001660 0.001660 0.001660 67.735909
4 0.000003 -0.000096 -136.681686 0.001660 0.001660 0.001660 136.681686
[root]
3 -16.502296 -32.589367 1476.893555 -67.939445 -12.416881 -81.940674 1477.345215
4 -16.502296 -32.199310 1475.951782 -70.228706 -12.511265 -82.785583 1476.395142
[chest]
3 -84.512650 -34.090519 0.000000 -133.103973 4.663882 142.098297 91.129311
4 -84.512650 -34.090519 0.000000 -122.665756 5.630191 144.362152 91.129311
[L_mid_tent01]
3 27.299301 22.178375 -249.918503 -164.403610 43.244370 -70.411873 252.381439
4 27.299297 22.178391 -249.918503 -162.388153 46.481941 -69.371758 252.381439
[R_mid_tent01]
3 23.228794 24.509907 226.238495 -131.034927 -81.775162 19.462307 228.744751
4 23.228794 24.509907 226.238495 -135.270508 -81.790436 23.883778 228.744751
[spine01]
3 -0.361383 -0.195265 0.000000 0.002062 0.001122 32.879829 0.410763
4 -0.361383 -0.195265 0.000000 0.002062 0.001122 32.879829 0.410763
[Bip01_Neck]
3 165.484543 71.581718 0.000119 176.643677 -1.657967 43.431911 180.302734
4 165.484543 71.581718 0.000119 176.643677 -1.657967 43.431911 180.302734
[L_humerus]
3 -13.983130 -135.272980 -120.471481 168.319534 66.750305 -101.567970 181.680161
4 -13.983130 -135.272980 -120.471481 167.223984 67.110374 -102.893478 181.680161
[R_humerus]
3 -13.983309 -135.273102 125.287651 -178.329346 -70.957146 -83.285225 184.909012
4 -13.983309 -135.273102 125.287651 -177.493393 -70.929268 -84.693298 184.909012
[weapon_bone]
3 235.964890 -300.705902 0.000000 0.000000 -89.951546 -128.212341 382.234833
4 235.964890 -300.705902 0.000000 0.000000 -89.951546 -128.212341 382.234833
[Bip01_Head]
3 213.339249 185.967529 8.523864 24.033058 5.243341 -43.849457 283.143433
4 213.337784 185.976212 8.411950 24.980453 5.343655 -43.846699 283.144684
[eye_left_bone]
3 -24.626970 125.451866 -64.772606 0.000000 -90.000000 -99.840431 143.318359
4 -24.626970 125.451866 -64.772606 0.000000 -90.000000 -99.840431 143.318359
[eye_right_bone]
3 -24.626970 125.451866 64.327362 0.000000 -89.965736 80.156380 143.117676
4 -24.626970 125.451866 64.327362 0.000000 -89.980217 80.156380 143.117676
[L_forearm]
3 322.776093 0.000000 -0.000119 0.000258 -0.002333 -102.639328 322.776093
4 322.776093 0.000000 -0.000119 0.000250 -0.002334 -102.226334 322.776093
[L_front_hand]
3 241.149185 -0.042021 -3.300071 -178.443130 -1.649570 -34.787403 241.171753
4 241.149185 -0.042021 -3.300071 -178.451752 -1.657760 -34.466305 241.171753
[L_weapon_bone]
3 156.183838 0.000000 0.000000 0.000014 0.000007 0.000001 156.183838
4 156.183838 0.000000 0.000000 0.000014 0.000007 0.000001 156.183838
[L_front_hand01_01]
3 86.095154 20.947098 -0.655860 -0.333746 -0.501136 71.406761 88.609184
4 86.095154 20.947098 -0.655860 -0.341152 -0.495935 72.188278 88.609184
[L_front_hand02_01]
3 86.935165 -11.437475 24.513514 148.589462 -57.981010 -54.586731 91.046425
4 86.935165 -11.437475 24.513514 149.679413 -58.387482 -55.867027 91.046425
[L_front_hand03_01]
3 86.637497 -14.123976 -20.424902 -148.514221 56.196938 -56.277771 90.126129
4 86.637497 -14.123976 -20.424902 -149.523788 56.607006 -57.492702 90.126129
[L_front_hand01_02]
3 71.020905 -0.000179 0.000030 0.000321 -0.002325 -105.739182 71.020905
4 71.020905 -0.000179 0.000030 0.000323 -0.002325 -105.799767 71.020905
[L_front_hand02_02]
3 71.020927 -0.000119 0.000060 0.000321 -0.002325 -105.739182 71.020927
4 71.020927 -0.000119 0.000060 0.000323 -0.002325 -105.799767 71.020927
[L_front_hand03_02]
3 71.020905 -0.000060 0.000060 0.000321 -0.002325 -105.739182 71.020905
4 71.020905 -0.000060 0.000060 0.000323 -0.002325 -105.799767 71.020905
[R_forearm]
3 322.776428 -0.000060 0.000030 0.211068 0.034463 -100.429871 322.776428
4 322.776428 -0.000060 0.000030 0.211183 0.033762 -100.049103 322.776428
[R_front_hand]
3 238.847015 -0.006795 2.210259 -1.003803 -10.917354 -35.011940 238.857239
4 238.847015 -0.006795 2.210259 -1.070158 -10.911191 -34.653912 238.857239
[R_weapon_bone]
3 155.664093 0.002503 -0.000030 0.003487 0.001180 -90.988930 155.664078
4 155.664093 0.002503 -0.000030 0.003487 0.001180 -90.988930 155.664078
[R_front_hand01_01]
3 87.624611 14.231146 22.918642 -151.601074 -59.040504 58.224789 91.683487
4 87.624611 14.231146 22.918642 -153.171555 -59.529900 60.052452 91.683487
[R_front_hand02_01]
3 89.356956 14.367283 -19.491137 151.761566 57.399368 60.393955 92.579636
4 89.356956 14.367283 -19.491137 153.232162 57.885750 62.134094 92.579636
[R_front_hand03_01]
3 87.286232 -22.307278 -0.143439 0.146836 -0.431871 -73.769867 90.091743
4 87.286232 -22.307278 -0.143439 0.154710 -0.427505 -74.818459 90.091743
[R_front_hand01_02]
3 71.020905 0.000060 0.000119 0.002323 -0.000334 106.381714 71.020905
4 71.020905 0.000060 0.000119 0.002323 -0.000334 106.381714 71.020905
[R_front_hand02_02]
3 71.020844 -0.000030 -0.000119 0.002323 -0.000334 106.381714 71.020836
4 71.020844 -0.000030 -0.000119 0.002323 -0.000334 106.381714 71.020836
[R_front_hand03_02]
3 71.020905 0.000000 0.000030 0.002323 -0.000334 106.381714 71.020905
4 71.020905 0.000000 0.000030 0.002323 -0.000334 106.381714 71.020905
[null_rope01_connect]
3 328.732483 0.000000 -0.000238 -162.551941 20.302708 -156.766846 328.732483
4 328.732483 0.000000 -0.000238 -162.487686 19.248837 -157.678314 328.732483
[Rope1_Seg01]
3 0.000004 -0.000056 0.000016 -3.332932 5.451777 -161.462769 0.000059
4 0.000006 -0.000056 0.000023 -3.945429 5.574291 -162.615875 0.000061
[Rope1_Seg02]
3 139.999863 -0.000179 0.000000 -10.763499 -10.359504 -10.555984 139.999863
4 139.999863 -0.000179 0.000000 -10.977880 -11.208610 -10.900743 139.999863
[Rope1_Seg03]
3 139.999924 0.000060 -0.000060 -8.978129 -6.417857 -17.203028 139.999924
4 139.999924 0.000060 -0.000060 -9.385209 -7.780032 -17.881754 139.999924
[Rope1_Seg04]
3 139.999924 -0.000060 -0.000119 -5.986196 -7.372915 -17.505898 139.999924
4 139.999924 -0.000060 -0.000119 -5.710581 -7.059669 -17.438660 139.999924
[Rope1_Seg05]
3 139.999832 0.000119 -0.000060 -6.801812 -26.245201 -19.549047 139.999832
4 139.999832 0.000119 -0.000060 -6.174682 -22.670269 -16.136032 139.999832
[Rope1_Seg06]
3 139.999954 0.000119 -0.000060 -4.402891 -11.792872 -12.432529 139.999954
4 139.999954 0.000119 -0.000060 -4.419994 -11.911179 -11.141376 139.999954
[Rope1_Seg07]
3 139.999985 0.000060 0.000000 -1.917108 -4.288939 -6.201131 139.999985
4 139.999985 0.000060 0.000000 -2.105301 -4.603112 -6.030499 139.999985
[Rope1_Seg09]
3 121.602913 0.000119 -0.000089 -89.793175 -1.359789 0.847147 121.602913
4 121.602913 0.000119 -0.000089 -89.793175 -1.359789 0.847147 121.602913
[L_mid_hand01]
3 103.859421 1.038730 8.195221 130.544373 -67.584534 -38.866943 104.187431
4 103.859421 1.038730 8.195221 130.544373 -67.584534 -38.866940 104.187431
[L_mid_hand02]
3 105.572853 -4.139662 -10.864139 -168.923172 43.409309 -73.498886 106.211075
4 105.572853 -4.139662 -10.864139 -168.923172 43.409309 -73.498886 106.211075
[L_mid_hand03]
3 104.641464 17.579376 -3.913581 -6.012627 17.808174 74.893669 106.179977
4 104.641464 17.579376 -3.913581 -6.012627 17.808174 74.893669 106.179977
[null_rope02_connect]
3 328.732849 0.000179 -0.000119 -147.714432 -19.591602 -7.285629 328.732849
4 328.732849 0.000179 -0.000119 -147.541962 -16.582611 -6.723246 328.732849
[Rope2_Seg01]
3 -0.000067 0.000099 0.000000 83.635139 31.497080 20.520826 0.000119
4 -0.000062 0.000099 0.000000 81.579613 33.934361 17.943020 0.000117
[Rope2_Seg02]
3 139.999741 -0.000060 -0.000119 2.665042 4.120417 10.457627 139.999756
4 139.999741 -0.000060 -0.000119 2.397602 3.910902 9.086300 139.999756
[Rope2_Seg03]
3 140.000107 0.000030 0.000000 6.869018 9.767638 22.654472 140.000107
4 140.000107 0.000030 0.000000 6.223552 9.260438 20.554537 140.000107
[Rope2_Seg04]
3 139.999802 0.000000 -0.000060 11.066363 17.888973 34.669743 139.999802
4 139.999802 0.000000 -0.000060 12.706356 17.917795 38.674442 139.999802
[Rope2_Seg05]
3 139.999985 -0.000060 0.000119 3.104279 11.139327 18.590593 139.999985
4 139.999985 -0.000060 0.000119 2.409133 16.319632 14.294173 139.999985
[Rope2_Seg06]
3 139.999893 -0.000030 -0.000119 1.196787 7.759796 13.727859 139.999893
4 139.999893 -0.000030 -0.000119 -0.975200 13.553431 7.182370 139.999893
[Rope2_Seg07]
3 139.999893 0.000060 -0.000060 0.333389 5.717934 9.208934 139.999893
4 139.999893 0.000060 -0.000060 -2.216600 8.570015 6.590655 139.999893
[Rope2_Seg09]
3 121.338966 0.000089 -0.000060 33.793236 -1.359788 -0.847141 121.338966
4 121.338966 0.000089 -0.000060 33.793236 -1.359788 -0.847141 121.338966
[R_mid_hand01]
3 104.680779 11.144459 -10.335981 -16.212063 45.237247 70.462852 105.778534
4 104.680779 11.144459 -10.335981 -16.212059 45.237240 70.462852 105.778534
[R_mid_hand02]
3 104.070427 2.443552 8.231699 49.067368 -67.749771 39.286453 104.424065
4 104.070427 2.443552 8.231699 49.067368 -67.749771 39.286453 104.424065
[R_mid_hand03]
3 106.028137 -11.221827 -5.996406 -177.101105 15.551026 -76.585571 106.788818
4 106.028137 -11.221827 -5.996406 -177.101105 15.551026 -76.585571 106.788818
[spine02]
3 129.756927 0.001550 0.000119 -1.185882 -4.266793 9.026616 129.756927
4 129.756927 0.001550 0.000119 -1.190820 -4.250941 9.102715 129.756927
[spine03]
3 78.613976 0.084031 -4.898916 0.931841 4.880507 2.828692 78.766510
4 78.613976 0.083970 -4.898918 0.927880 4.852464 2.781223 78.766510
[pelvis]
3 169.435242 0.051022 0.000000 0.021860 0.095575 -13.553066 169.435257
4 169.435242 0.051022 0.000000 0.021514 0.083939 -13.651014 169.435257
[null_rope03_connect]
3 -1.257226 -2.466202 137.391083 29.856356 -65.875916 39.960617 137.418976
4 -1.257226 -2.466202 137.391083 30.146919 -68.431969 40.140266 137.418976
[null_rope04_connect]
3 -1.259640 -2.480268 -137.844437 29.856356 -65.875916 39.960617 137.872513
4 -1.259640 -2.480268 -137.844437 30.146919 -68.431969 40.140266 137.872513
[Rope3_Seg01]
3 -0.000029 -0.000036 0.000016 14.329713 -3.587886 -54.618450 0.000049
4 -0.000029 -0.000035 0.000023 14.168421 -4.285067 -55.088661 0.000051
[Rope3_Seg02]
3 139.999924 -0.000119 0.000060 -2.217507 -5.552639 2.253736 139.999924
4 139.999924 -0.000119 0.000060 -2.178206 -5.576385 2.351358 139.999924
[Rope3_Seg03]
3 139.999924 -0.000119 0.000119 -3.258124 -8.889025 3.242797 139.999924
4 139.999924 -0.000119 0.000119 -3.146467 -8.740704 3.333874 139.999924
[Rope3_Seg04]
3 139.999924 0.000119 0.000000 -4.940873 -15.948999 5.154067 139.999924
4 139.999924 0.000119 0.000000 -4.740784 -15.227145 5.276310 139.999924
[Rope3_Seg05]
3 139.999924 -0.000238 0.000060 -5.713344 -29.732807 8.850235 139.999924
4 139.999924 -0.000238 0.000060 -5.872851 -27.556492 9.188479 139.999924
[Rope3_Seg06]
3 139.999893 -0.000119 -0.000060 0.870175 -15.129316 0.898945 139.999893
4 139.999893 -0.000119 -0.000060 0.522244 -13.936571 0.306548 139.999893
[Rope3_Seg07]
3 139.999771 0.000060 -0.000119 0.255915 -0.350996 -3.842673 139.999771
4 139.999771 0.000060 -0.000119 0.185703 -0.019849 -5.054513 139.999771
[Rope3_Seg08]
3 139.999985 -0.000060 0.000000 0.943801 -3.251246 -1.464987 139.999985
4 139.999985 -0.000060 0.000000 0.842665 -3.060562 -2.029673 139.999985
[Rope3_Seg09]
3 90.185997 -0.000179 -0.000060 89.793228 -1.359877 -0.847183 90.185997
4 90.185997 -0.000179 -0.000060 89.793228 -1.359877 -0.847183 90.185997
[R_rear_hand01]
3 103.366196 -6.073594 -10.757982 -177.714203 24.565960 -73.910950 104.101845
4 103.366196 -6.073594 -10.757982 -177.714203 24.565966 -73.910957 104.101845
[R_rear_hand02]
3 100.509819 12.039542 -7.992327 -12.874829 36.868488 72.167213 101.543350
4 100.509819 12.039542 -7.992327 -12.874829 36.868488 72.167213 101.543350
[R_rear_hand03]
3 101.539970 5.215704 5.435467 71.484581 -71.816628 21.513813 101.819031
4 101.539970 5.215704 5.435467 71.484596 -71.816643 21.513824 101.819031
[Rope4_Seg01]
3 0.000000 0.000000 0.000000 -96.903015 -16.094988 -112.783096 0.000000
4 0.000000 0.000000 0.000000 -96.504951 -16.713047 -113.722054 0.000000
[Rope4_Seg02]
3 139.999985 0.000060 0.000119 0.524492 2.152623 -7.517693 139.999985
4 139.999985 0.000060 0.000119 0.638252 2.160588 -8.308922 139.999985
[Rope4_Seg03]
3 139.999924 0.000000 -0.000238 0.357514 2.561939 -9.370330 139.999924
4 139.999924 0.000000 -0.000238 0.402490 2.480375 -10.134071 139.999924
[Rope4_Seg04]
3 139.999985 0.000000 0.000119 0.011166 3.565773 -10.999620 139.999985
4 139.999985 0.000000 0.000119 -0.022521 3.478688 -11.239014 139.999985
[Rope4_Seg05]
3 139.999802 -0.000060 -0.000119 -0.242860 3.640419 -10.635163 139.999802
4 139.999802 -0.000060 -0.000119 -0.264049 2.947713 -10.299535 139.999802
[Rope4_Seg06]
3 139.999924 0.000000 0.000060 -0.434323 0.744148 -11.236278 139.999924
4 139.999924 0.000000 0.000060 -0.573942 0.137529 -11.542140 139.999924
[Rope4_Seg07]
3 139.999802 0.000000 0.000000 -1.749342 -1.656626 -15.933421 139.999802
4 139.999802 0.000000 0.000000 -2.136027 -1.796242 -16.196241 139.999802
[Rope4_Seg08]
3 139.999924 0.000000 0.000119 -4.909144 -0.058460 -13.666103 139.999924
4 139.999924 0.000000 0.000119 -5.010041 -0.012973 -12.806386 139.999924
[Rope4_Seg09]
3 90.185791 0.000060 0.000060 -135.617828 2.228885 0.850567 90.185791
4 90.185791 0.000060 0.000060 -135.617828 2.228885 0.850567 90.185791
[L_rear_hand01]
3 101.696655 -8.392275 -7.654577 -12.874829 -36.868488 107.832764 102.329041
4 101.696655 -8.392275 -7.654577 -12.874829 -36.868488 107.832764 102.329041
[L_rear_hand02]
3 102.726799 -1.568258 5.773216 71.484581 71.816628 158.486160 102.900848
4 102.726799 -1.568258 5.773216 71.484596 71.816643 158.486160 102.900848
[L_rear_hand03]
3 104.552910 9.721220 -10.420293 -177.714203 -24.565960 -106.089035 105.519653
4 104.552910 9.721220 -10.420293 -177.714203 -24.565966 -106.089035 105.519653
